<mxfile host="app.diagrams.net" modified="2023-03-01T13:02:12.601Z" agent="5.0 (Windows NT 10.0; Win64; x64) AppleWebKit/537.36 (KHTML, like Gecko) Chrome/110.0.0.0 Safari/537.36" etag="0OwRmASlA3hwoHTOjiKO" version="20.8.23" type="github">
  <diagram id="C5RBs43oDa-KdzZeNtuy" name="Page-1">
    <mxGraphModel dx="1434" dy="834" grid="1" gridSize="10" guides="1" tooltips="1" connect="1" arrows="1" fold="1" page="1" pageScale="1" pageWidth="827" pageHeight="1169" math="0" shadow="0">
      <root>
        <mxCell id="WIyWlLk6GJQsqaUBKTNV-0" />
        <mxCell id="WIyWlLk6GJQsqaUBKTNV-1" parent="WIyWlLk6GJQsqaUBKTNV-0" />
        <mxCell id="BwP9HFq0qq0CDtsWItfT-3" value="" style="edgeStyle=orthogonalEdgeStyle;rounded=0;orthogonalLoop=1;jettySize=auto;html=1;" edge="1" parent="WIyWlLk6GJQsqaUBKTNV-1" source="BwP9HFq0qq0CDtsWItfT-0" target="BwP9HFq0qq0CDtsWItfT-2">
          <mxGeometry relative="1" as="geometry" />
        </mxCell>
        <mxCell id="BwP9HFq0qq0CDtsWItfT-0" value="Start" style="ellipse;whiteSpace=wrap;html=1;" vertex="1" parent="WIyWlLk6GJQsqaUBKTNV-1">
          <mxGeometry x="354" y="60" width="120" height="80" as="geometry" />
        </mxCell>
        <mxCell id="BwP9HFq0qq0CDtsWItfT-6" value="" style="edgeStyle=orthogonalEdgeStyle;rounded=0;orthogonalLoop=1;jettySize=auto;html=1;labelBorderColor=none;startArrow=none;" edge="1" parent="WIyWlLk6GJQsqaUBKTNV-1" source="BwP9HFq0qq0CDtsWItfT-7" target="BwP9HFq0qq0CDtsWItfT-5">
          <mxGeometry relative="1" as="geometry" />
        </mxCell>
        <mxCell id="BwP9HFq0qq0CDtsWItfT-10" value="" style="edgeStyle=orthogonalEdgeStyle;rounded=0;orthogonalLoop=1;jettySize=auto;html=1;labelBorderColor=none;fontColor=default;startArrow=none;" edge="1" parent="WIyWlLk6GJQsqaUBKTNV-1" source="BwP9HFq0qq0CDtsWItfT-11" target="BwP9HFq0qq0CDtsWItfT-9">
          <mxGeometry relative="1" as="geometry" />
        </mxCell>
        <mxCell id="BwP9HFq0qq0CDtsWItfT-1" value="a &amp;lt; 0" style="rhombus;whiteSpace=wrap;html=1;" vertex="1" parent="WIyWlLk6GJQsqaUBKTNV-1">
          <mxGeometry x="374" y="260" width="80" height="80" as="geometry" />
        </mxCell>
        <mxCell id="BwP9HFq0qq0CDtsWItfT-4" value="" style="edgeStyle=orthogonalEdgeStyle;rounded=0;orthogonalLoop=1;jettySize=auto;html=1;" edge="1" parent="WIyWlLk6GJQsqaUBKTNV-1" source="BwP9HFq0qq0CDtsWItfT-2" target="BwP9HFq0qq0CDtsWItfT-1">
          <mxGeometry relative="1" as="geometry" />
        </mxCell>
        <mxCell id="BwP9HFq0qq0CDtsWItfT-2" value="Pobierz a" style="rounded=0;whiteSpace=wrap;html=1;" vertex="1" parent="WIyWlLk6GJQsqaUBKTNV-1">
          <mxGeometry x="354" y="170" width="120" height="60" as="geometry" />
        </mxCell>
        <mxCell id="BwP9HFq0qq0CDtsWItfT-15" style="edgeStyle=orthogonalEdgeStyle;rounded=0;orthogonalLoop=1;jettySize=auto;html=1;labelBorderColor=none;fontColor=default;" edge="1" parent="WIyWlLk6GJQsqaUBKTNV-1" source="BwP9HFq0qq0CDtsWItfT-5" target="BwP9HFq0qq0CDtsWItfT-13">
          <mxGeometry relative="1" as="geometry">
            <Array as="points">
              <mxPoint x="610" y="430" />
            </Array>
          </mxGeometry>
        </mxCell>
        <mxCell id="BwP9HFq0qq0CDtsWItfT-5" value="a*(-1)" style="whiteSpace=wrap;html=1;" vertex="1" parent="WIyWlLk6GJQsqaUBKTNV-1">
          <mxGeometry x="550" y="270" width="120" height="60" as="geometry" />
        </mxCell>
        <mxCell id="BwP9HFq0qq0CDtsWItfT-8" value="" style="edgeStyle=orthogonalEdgeStyle;rounded=0;orthogonalLoop=1;jettySize=auto;html=1;labelBorderColor=none;endArrow=none;" edge="1" parent="WIyWlLk6GJQsqaUBKTNV-1" source="BwP9HFq0qq0CDtsWItfT-1" target="BwP9HFq0qq0CDtsWItfT-7">
          <mxGeometry relative="1" as="geometry">
            <mxPoint x="454" y="300" as="sourcePoint" />
            <mxPoint x="550" y="300" as="targetPoint" />
          </mxGeometry>
        </mxCell>
        <mxCell id="BwP9HFq0qq0CDtsWItfT-7" value="Tak" style="text;html=1;align=center;verticalAlign=middle;resizable=0;points=[];autosize=1;strokeColor=none;fillColor=none;labelBackgroundColor=none;fontColor=default;" vertex="1" parent="WIyWlLk6GJQsqaUBKTNV-1">
          <mxGeometry x="474" y="285" width="40" height="30" as="geometry" />
        </mxCell>
        <mxCell id="BwP9HFq0qq0CDtsWItfT-14" style="edgeStyle=orthogonalEdgeStyle;rounded=0;orthogonalLoop=1;jettySize=auto;html=1;labelBorderColor=none;fontColor=default;" edge="1" parent="WIyWlLk6GJQsqaUBKTNV-1" source="BwP9HFq0qq0CDtsWItfT-9" target="BwP9HFq0qq0CDtsWItfT-13">
          <mxGeometry relative="1" as="geometry">
            <Array as="points">
              <mxPoint x="220" y="430" />
            </Array>
          </mxGeometry>
        </mxCell>
        <mxCell id="BwP9HFq0qq0CDtsWItfT-9" value="a" style="whiteSpace=wrap;html=1;" vertex="1" parent="WIyWlLk6GJQsqaUBKTNV-1">
          <mxGeometry x="160" y="270" width="120" height="60" as="geometry" />
        </mxCell>
        <mxCell id="BwP9HFq0qq0CDtsWItfT-12" value="" style="edgeStyle=orthogonalEdgeStyle;rounded=0;orthogonalLoop=1;jettySize=auto;html=1;labelBorderColor=none;fontColor=default;endArrow=none;" edge="1" parent="WIyWlLk6GJQsqaUBKTNV-1" source="BwP9HFq0qq0CDtsWItfT-1" target="BwP9HFq0qq0CDtsWItfT-11">
          <mxGeometry relative="1" as="geometry">
            <mxPoint x="374" y="300" as="sourcePoint" />
            <mxPoint x="290" y="300" as="targetPoint" />
          </mxGeometry>
        </mxCell>
        <mxCell id="BwP9HFq0qq0CDtsWItfT-11" value="Nie" style="text;html=1;align=center;verticalAlign=middle;resizable=0;points=[];autosize=1;strokeColor=none;fillColor=none;fontColor=default;" vertex="1" parent="WIyWlLk6GJQsqaUBKTNV-1">
          <mxGeometry x="314" y="285" width="40" height="30" as="geometry" />
        </mxCell>
        <mxCell id="BwP9HFq0qq0CDtsWItfT-13" value="Stop" style="ellipse;whiteSpace=wrap;html=1;labelBackgroundColor=none;fontColor=default;" vertex="1" parent="WIyWlLk6GJQsqaUBKTNV-1">
          <mxGeometry x="350" y="390" width="120" height="80" as="geometry" />
        </mxCell>
      </root>
    </mxGraphModel>
  </diagram>
</mxfile>
